<svg xmlns="http://www.w3.org/2000/svg" viewBox="0 0 1080 1920" width="1080" height="1920" style="transform: scaleX(-1)">
  <defs>
    <linearGradient id="cow" x1="0" y1="0" x2="0" y2="1">
      <stop offset="0" stop-color="#fdf6e3"/>
      <stop offset="1" stop-color="#e8d0a8"/>
    </linearGradient>
  </defs>
  <g transform="translate(280,1500)">
    <ellipse cx="0" cy="0" rx="180" ry="100" fill="url(#cow)" stroke="#8b6f47" stroke-width="2"/>
    <ellipse cx="-180" cy="-40" rx="60" ry="50" fill="url(#cow)" stroke="#8b6f47" stroke-width="2"/>
    <path d="M-210,-80 Q-230,-110 -220,-130" stroke="#d4af37" stroke-width="4" fill="none"/>
    <path d="M-150,-80 Q-130,-110 -140,-130" stroke="#d4af37" stroke-width="4" fill="none"/>
    <circle cx="-220" cy="-130" r="5" fill="#d4af37"/>
    <circle cx="-140" cy="-130" r="5" fill="#d4af37"/>
    <ellipse cx="-200" cy="-30" rx="20" ry="10" fill="url(#cow)" transform="rotate(-20 -200 -30)"/>
    <ellipse cx="-160" cy="-30" rx="20" ry="10" fill="url(#cow)" transform="rotate(20 -160 -30)"/>
    <ellipse cx="-190" cy="-50" rx="6" ry="8" fill="#000"/>
    <ellipse cx="-170" cy="-50" rx="6" ry="8" fill="#000"/>
    <ellipse cx="-195" cy="-20" rx="14" ry="10" fill="#e890a8"/>
    <circle cx="-200" cy="-15" r="6" fill="none" stroke="#d4af37" stroke-width="2"/>
    <g fill="#800020">
      <circle cx="-50" cy="-30" r="6"/><circle cx="0" cy="-40" r="6"/><circle cx="50" cy="-30" r="6"/>
      <circle cx="-80" cy="10" r="6"/><circle cx="80" cy="10" r="6"/>
    </g>
    <g fill="#8b6f47">
      <rect x="-120" y="80" width="14" height="80"/><rect x="-60" y="80" width="14" height="80"/>
      <rect x="60" y="80" width="14" height="80"/><rect x="120" y="80" width="14" height="80"/>
    </g>
    <g fill="#800020">
      <rect x="-120" y="130" width="14" height="30"/><rect x="-60" y="130" width="14" height="30"/>
      <rect x="60" y="130" width="14" height="30"/><rect x="120" y="130" width="14" height="30"/>
    </g>
    <path d="M0,90 Q-10,90 -10,100 Q0,115 10,100 Q10,90 0,90" fill="#d4af37"/>
    <g transform="translate(-60,180)">
      <ellipse cx="0" cy="0" rx="80" ry="45" fill="url(#cow)" stroke="#8b6f47" stroke-width="1.5"/>
      <ellipse cx="-70" cy="-15" rx="28" ry="22" fill="url(#cow)" stroke="#8b6f47" stroke-width="1.5"/>
      <ellipse cx="-85" cy="-20" rx="4" ry="6" fill="#000"/>
      <rect x="-40" y="40" width="8" height="35" fill="#8b6f47"/><rect x="20" y="40" width="8" height="35" fill="#8b6f47"/>
      <rect x="-40" y="65" width="8" height="15" fill="#800020"/><rect x="20" y="65" width="8" height="15" fill="#800020"/>
    </g>
  </g>
</svg>
